<svg width="48" height="48" viewBox="0 0 48 48" fill="none" xmlns="http://www.w3.org/2000/svg">
<rect width="48" height="48" rx="8" fill="white"/>
<path d="M13.2317 34.6667C12.5599 34.6667 11.9994 34.4421 11.5502 33.993C11.101 33.5438 10.876 32.9828 10.875 32.31V18.065C10.875 17.3932 11.1001 16.8328 11.5502 16.3836C12.0003 15.9344 12.5603 15.7093 13.2302 15.7084H19.625V13.6886C19.625 13.0178 19.8501 12.4573 20.3002 12.0071C20.7503 11.557 21.3108 11.3324 21.9817 11.3334H26.0198C26.6906 11.3334 27.2511 11.558 27.7013 12.0071C28.1514 12.4563 28.376 13.0168 28.375 13.6886V15.7084H34.7698C35.4406 15.7084 36.0006 15.9334 36.4498 16.3836C36.899 16.8337 37.124 17.3942 37.125 18.065V32.3115C37.125 32.9823 36.8999 33.5428 36.4498 33.993C35.9997 34.4431 35.4397 34.6677 34.7698 34.6667H13.2317ZM13.2317 33.2084H34.7698C34.9934 33.2084 35.199 33.115 35.3867 32.9284C35.5743 32.7417 35.6676 32.5356 35.6667 32.31V18.065C35.6667 17.8405 35.5733 17.6344 35.3867 17.4467C35.2 17.2591 34.9944 17.1657 34.7698 17.1667H13.2302C13.0066 17.1667 12.801 17.26 12.6133 17.4467C12.4257 17.6334 12.3324 17.8395 12.3333 18.065V32.3115C12.3333 32.5351 12.4267 32.7407 12.6133 32.9284C12.8 33.116 13.0056 33.2093 13.2302 33.2084M21.0833 15.7084H26.9167V13.6886C26.9167 13.465 26.8233 13.2593 26.6367 13.0717C26.45 12.8841 26.2444 12.7907 26.0198 12.7917H21.9802C21.7566 12.7917 21.551 12.885 21.3633 13.0717C21.1757 13.2584 21.0824 13.464 21.0833 13.6886V15.7084Z" fill="#2A253B"/>
</svg>
