<svg width="48" height="48" viewBox="0 0 48 48" fill="none" xmlns="http://www.w3.org/2000/svg">
<rect width="48" height="48" rx="8" fill="white"/>
<path d="M33.375 13H29.625V11.125C29.625 10.9592 29.5592 10.8003 29.4419 10.6831C29.3247 10.5658 29.1658 10.5 29 10.5C28.8342 10.5 28.6753 10.5658 28.5581 10.6831C28.4408 10.8003 28.375 10.9592 28.375 11.125V13H19.625V11.125C19.625 10.9592 19.5592 10.8003 19.4419 10.6831C19.3247 10.5658 19.1658 10.5 19 10.5C18.8342 10.5 18.6753 10.5658 18.5581 10.6831C18.4408 10.8003 18.375 10.9592 18.375 11.125V13H14.625C13.7965 13.001 13.0022 13.3306 12.4164 13.9164C11.8306 14.5022 11.501 15.2965 11.5 16.125V32.375C11.501 33.2035 11.8306 33.9978 12.4164 34.5836C13.0022 35.1694 13.7965 35.499 14.625 35.5H33.375C34.2038 35.5 34.9987 35.1708 35.5847 34.5847C36.1708 33.9987 36.5 33.2038 36.5 32.375V16.125C36.5 15.2962 36.1708 14.5013 35.5847 13.9153C34.9987 13.3292 34.2038 13 33.375 13ZM35.25 32.375C35.25 32.8723 35.0525 33.3492 34.7008 33.7008C34.3492 34.0525 33.8723 34.25 33.375 34.25H14.625C14.1277 34.25 13.6508 34.0525 13.2992 33.7008C12.9475 33.3492 12.75 32.8723 12.75 32.375V21.75H35.25V32.375ZM35.25 20.5H12.75V16.125C12.75 15.09 13.5875 14.25 14.625 14.25H18.375V16.125C18.375 16.2908 18.4408 16.4497 18.5581 16.5669C18.6753 16.6842 18.8342 16.75 19 16.75C19.1658 16.75 19.3247 16.6842 19.4419 16.5669C19.5592 16.4497 19.625 16.2908 19.625 16.125V14.25H28.375V16.125C28.375 16.2908 28.4408 16.4497 28.5581 16.5669C28.6753 16.6842 28.8342 16.75 29 16.75C29.1658 16.75 29.3247 16.6842 29.4419 16.5669C29.5592 16.4497 29.625 16.2908 29.625 16.125V14.25H33.375C33.8723 14.25 34.3492 14.4475 34.7008 14.7992C35.0525 15.1508 35.25 15.6277 35.25 16.125V20.5Z" fill="#2A253B"/>
</svg>
