<svg width="48" height="48" viewBox="0 0 48 48" fill="none" xmlns="http://www.w3.org/2000/svg">
<rect width="48" height="48" rx="8" fill="white"/>
<path fill-rule="evenodd" clip-rule="evenodd" d="M24.75 22.3787L29.6137 27.2425L28.5537 28.3037L23.25 23V15.5H24.75V22.3787ZM24 35.5C17.0963 35.5 11.5 29.9037 11.5 23C11.5 16.0963 17.0963 10.5 24 10.5C30.9037 10.5 36.5 16.0963 36.5 23C36.5 29.9037 30.9037 35.5 24 35.5ZM24 34C26.9174 34 29.7153 32.8411 31.7782 30.7782C33.8411 28.7153 35 25.9174 35 23C35 20.0826 33.8411 17.2847 31.7782 15.2218C29.7153 13.1589 26.9174 12 24 12C21.0826 12 18.2847 13.1589 16.2218 15.2218C14.1589 17.2847 13 20.0826 13 23C13 25.9174 14.1589 28.7153 16.2218 30.7782C18.2847 32.8411 21.0826 34 24 34Z" fill="#2A253B"/>
</svg>
