<svg width="10" height="14" viewBox="0 0 10 14" fill="none" xmlns="http://www.w3.org/2000/svg">
<path d="M9.04995 6.37796C8.8857 6.14462 8.68574 5.94239 8.50006 5.74016C8.02157 5.27348 7.47881 4.93903 7.02175 4.44902C5.95766 3.31343 5.72199 1.43893 6.40044 0C5.72199 0.178894 5.12924 0.58335 4.62219 1.0267C2.77253 2.64452 2.04409 5.49905 2.91536 7.94912C2.94393 8.0269 2.9725 8.10468 2.9725 8.20579C2.9725 8.37691 2.86537 8.53247 2.72254 8.59469C2.55829 8.67247 2.38689 8.6258 2.2512 8.50135C2.21067 8.46437 2.17677 8.41954 2.15122 8.36913C1.34422 7.25687 1.21567 5.66238 1.75843 4.38679C0.565794 5.4446 -0.0840869 7.23354 0.00875321 8.92137C0.0516025 9.31027 0.0944518 9.69917 0.215858 10.0881C0.31584 10.5547 0.508662 11.0214 0.722908 11.4337C1.4942 12.7793 2.82967 13.7437 4.26512 13.9382C5.79341 14.1482 7.42882 13.8448 8.60004 12.6937C9.90694 11.4025 10.364 9.3336 9.69269 7.56022L9.59985 7.35799C9.44988 7.0002 9.04995 6.37796 9.04995 6.37796ZM6.79323 11.2781C6.59326 11.4648 6.26475 11.667 6.00765 11.7448C5.2078 12.0559 4.40795 11.6203 3.93661 11.107C4.78645 10.8892 5.2935 10.2047 5.44347 9.51249C5.56488 8.89025 5.33635 8.37691 5.24351 7.778C5.15781 7.20243 5.17209 6.71241 5.36492 6.17573C5.5006 6.4713 5.64344 6.76686 5.81483 7.0002C6.36473 7.778 7.22886 8.12023 7.41454 9.17804C7.44311 9.28693 7.45739 9.39582 7.45739 9.51249C7.47881 10.1503 7.22172 10.8503 6.79323 11.2781Z" fill="#F48FB1"/>
</svg>
